<svg xmlns="http://www.w3.org/2000/svg" viewBox="-6 -6 152.8 152.8" width="152.8" height="152.8">
  <defs>
    <marker id="ah" viewBox="0 0 10 10" refX="9" refY="5" markerWidth="5" markerHeight="5" orient="auto-start-reverse">
      <path d="M 0 0 L 10 5 L 0 10 z" fill="#111111"/>
    </marker>
  </defs>
  <rect x="10.40" y="10.40" width="40.00" height="40.00" rx="3.20" fill="#FFD500" stroke="#888888" stroke-width="1.5"/>
  <rect x="50.40" y="10.40" width="40.00" height="40.00" rx="3.20" fill="#FFD500" stroke="#888888" stroke-width="1.5"/>
  <rect x="90.40" y="10.40" width="40.00" height="40.00" rx="3.20" fill="#FFD500" stroke="#888888" stroke-width="1.5"/>
  <rect x="10.40" y="50.40" width="40.00" height="40.00" rx="3.20" fill="#FFD500" stroke="#888888" stroke-width="1.5"/>
  <rect x="50.40" y="50.40" width="40.00" height="40.00" rx="3.20" fill="#FFD500" stroke="#888888" stroke-width="1.5"/>
  <rect x="90.40" y="50.40" width="40.00" height="40.00" rx="3.20" fill="#FFD500" stroke="#888888" stroke-width="1.5"/>
  <rect x="10.40" y="90.40" width="40.00" height="40.00" rx="3.20" fill="#FFD500" stroke="#888888" stroke-width="1.5"/>
  <rect x="50.40" y="90.40" width="40.00" height="40.00" rx="3.20" fill="#FFD500" stroke="#888888" stroke-width="1.5"/>
  <rect x="90.40" y="90.40" width="40.00" height="40.00" rx="3.20" fill="#FFD500" stroke="#888888" stroke-width="1.5"/>
  <polygon points="14.80,0.00 51.87,0.00 50.40,8.80 10.40,8.80" fill="#0051BA" stroke="#888888" stroke-width="1.5" stroke-linejoin="round"/>
  <polygon points="51.87,0.00 88.93,0.00 90.40,8.80 50.40,8.80" fill="#C41E3A" stroke="#888888" stroke-width="1.5" stroke-linejoin="round"/>
  <polygon points="88.93,0.00 126.00,0.00 130.40,8.80 90.40,8.80" fill="#C41E3A" stroke="#888888" stroke-width="1.5" stroke-linejoin="round"/>
  <polygon points="10.40,132.00 50.40,132.00 51.87,140.80 14.80,140.80" fill="#009E60" stroke="#888888" stroke-width="1.5" stroke-linejoin="round"/>
  <polygon points="50.40,132.00 90.40,132.00 88.93,140.80 51.87,140.80" fill="#0051BA" stroke="#888888" stroke-width="1.5" stroke-linejoin="round"/>
  <polygon points="90.40,132.00 130.40,132.00 126.00,140.80 88.93,140.80" fill="#C41E3A" stroke="#888888" stroke-width="1.5" stroke-linejoin="round"/>
  <polygon points="0.00,14.80 8.80,10.40 8.80,50.40 0.00,51.87" fill="#FF5800" stroke="#888888" stroke-width="1.5" stroke-linejoin="round"/>
  <polygon points="0.00,51.87 8.80,50.40 8.80,90.40 0.00,88.93" fill="#009E60" stroke="#888888" stroke-width="1.5" stroke-linejoin="round"/>
  <polygon points="0.00,88.93 8.80,90.40 8.80,130.40 0.00,126.00" fill="#FF5800" stroke="#888888" stroke-width="1.5" stroke-linejoin="round"/>
  <polygon points="132.00,10.40 140.80,14.80 140.80,51.87 132.00,50.40" fill="#009E60" stroke="#888888" stroke-width="1.5" stroke-linejoin="round"/>
  <polygon points="132.00,50.40 140.80,51.87 140.80,88.93 132.00,90.40" fill="#FF5800" stroke="#888888" stroke-width="1.5" stroke-linejoin="round"/>
  <polygon points="132.00,90.40 140.80,88.93 140.80,126.00 132.00,130.40" fill="#0051BA" stroke="#888888" stroke-width="1.5" stroke-linejoin="round"/>
  <line x1="110.40" y1="35.20" x2="110.40" y2="105.60" stroke="#111111" stroke-width="1.8" marker-end="url(#ah)"/>
  <line x1="110.40" y1="105.60" x2="110.40" y2="35.20" stroke="#111111" stroke-width="1.8" marker-end="url(#ah)"/>
  <line x1="73.79" y1="33.79" x2="107.01" y2="67.01" stroke="#111111" stroke-width="1.8" marker-end="url(#ah)"/>
  <line x1="33.79" y1="73.79" x2="67.01" y2="107.01" stroke="#111111" stroke-width="1.8" marker-end="url(#ah)"/>
  <line x1="105.60" y1="70.40" x2="35.20" y2="70.40" stroke="#111111" stroke-width="1.8" marker-end="url(#ah)"/>
  <line x1="70.40" y1="105.60" x2="70.40" y2="35.20" stroke="#111111" stroke-width="1.8" marker-end="url(#ah)"/>
</svg>
